<svg width="124" height="109" viewBox="0 0 124 109" fill="none" xmlns="http://www.w3.org/2000/svg">
<path d="M100.86 47.0257C100.867 45.5918 99.4064 44.6174 98.0848 45.1736L61.207 60.6923C60.4681 61.0033 59.9863 61.7254 59.9828 62.5271L59.7959 105.694C59.7896 107.146 61.2833 108.121 62.6095 107.53L99.4911 91.1079C100.21 90.7878 100.674 90.0762 100.678 89.2895L100.86 47.0257Z" fill="#FF9800"/>
<path d="M21.7956 47.0257C21.7894 45.5918 23.2497 44.6174 24.5714 45.1736L61.4491 60.6923C62.188 61.0033 62.6699 61.7254 62.6734 62.5271L62.8602 105.694C62.8665 107.146 61.3728 108.121 60.0467 107.53L23.165 91.1079C22.4463 90.7878 21.982 90.0762 21.9786 89.2895L21.7956 47.0257Z" fill="#FF9800"/>
<path d="M4.43798 56.653C2.87434 55.9966 2.78582 53.8143 4.29116 53.0335L22.0087 43.8433C22.5314 43.5721 23.147 43.5451 23.6915 43.7695L61.4638 59.3327C63.0949 60.0048 63.1204 62.3056 61.5047 63.0137L41.7858 71.6556C41.284 71.8755 40.714 71.88 40.2089 71.6679L4.43798 56.653Z" fill="#E91E63"/>
<path d="M61.938 31.0028C60.3744 30.3465 60.2858 28.1642 61.7912 27.3833L79.5087 18.1931C80.0314 17.922 80.6471 17.895 81.1915 18.1193L118.964 33.6826C120.595 34.3546 120.62 36.6555 119.005 37.3636L99.2858 46.0055C98.7841 46.2254 98.2141 46.2298 97.7089 46.0178L61.938 31.0028Z" fill="#E91E63"/>
<path d="M61.3761 31.0028C62.9397 30.3465 63.0282 28.1642 61.5229 27.3833L43.8054 18.1931C43.2827 17.922 42.667 17.895 42.1226 18.1193L4.35021 33.6826C2.71918 34.3546 2.69363 36.6555 4.30933 37.3636L24.0283 46.0055C24.53 46.2254 25.1 46.2298 25.6051 46.0178L61.3761 31.0028Z" fill="#E91E63"/>
<path d="M119.376 57.0028C120.94 56.3465 121.028 54.1642 119.523 53.3833L101.805 44.1931C101.283 43.922 100.667 43.895 100.123 44.1193L62.3502 59.6826C60.7192 60.3546 60.6936 62.6555 62.3093 63.3636L82.0283 72.0055C82.53 72.2254 83.1 72.2298 83.6052 72.0178L119.376 57.0028Z" fill="#E91E63"/>
</svg>
