<svg width="120" height="120" viewBox="0 0 120 120" fill="none" xmlns="http://www.w3.org/2000/svg">
<path d="M8.31933 29.8952C8.31933 29.3465 8.54477 28.8219 8.94286 28.4442L27.6145 10.7313C27.9861 10.3788 28.4788 10.1823 28.991 10.1823H108C109.105 10.1823 110 11.0777 110 12.1823V106.939C110 108.043 109.105 108.939 108 108.939H10.3193C9.21476 108.939 8.31933 108.043 8.31933 106.939V29.8952Z" fill="#EEEEEE"/>
<path d="M12.9412 32.6702C12.9412 32.1215 13.1666 31.5968 13.5647 31.2192L30.4297 15.2202C30.8013 14.8677 31.2939 14.6712 31.8061 14.6712H103.378C104.483 14.6712 105.378 15.5666 105.378 16.6712V102.45C105.378 103.554 104.483 104.45 103.378 104.45H14.9412C13.8366 104.45 12.9412 103.554 12.9412 102.45V32.6702Z" fill="#B0BEC5"/>
<path d="M31.3635 31.5286C31.3453 32.6117 30.4303 33.4767 29.315 33.4653L11.0369 33.2779C9.2262 33.2593 8.34387 31.1211 9.64094 29.8948L28.2182 12.3311C29.5152 11.1048 31.6923 12.019 31.6626 13.7775L31.3635 31.5286Z" fill="#EEEEEE"/>
<ellipse cx="81.3445" cy="37.1158" rx="18.4874" ry="17.9557" fill="#EF9A9A"/>
<path d="M17.563 49.4403C17.563 48.3357 18.4585 47.4403 19.563 47.4403H52.5378C53.6424 47.4403 54.5378 48.3357 54.5378 49.4403V81.3517C54.5378 82.4563 53.6424 83.3517 52.5378 83.3517H19.563C18.4585 83.3517 17.563 82.4563 17.563 81.3517V49.4403Z" fill="#FFCC80"/>
<path d="M65.0836 62.4719C65.0736 60.9057 66.8366 59.9721 68.1867 60.8288L98.2912 79.9324C99.5864 80.7542 99.5294 82.6229 98.1876 83.3333L68.3065 99.1555C66.9647 99.866 65.3167 98.9001 65.3071 97.3976L65.0836 62.4719Z" fill="#B39DDB"/>
</svg>
