<svg width="193" height="151" viewBox="0 0 193 151" fill="none" xmlns="http://www.w3.org/2000/svg">
<path d="M16.8077 88.0382C16.7958 86.6011 18.2584 85.6208 19.5832 86.1781L56.9169 101.883C57.6533 102.193 58.1347 102.911 58.1413 103.71L58.4997 146.948C58.5118 148.402 57.0161 149.383 55.6869 148.792L18.3457 132.181C17.6293 131.862 17.1652 131.154 17.1587 130.37L16.8077 88.0382Z" fill="#673AB7"/>
<path d="M96.1506 88.0257C96.1568 86.5918 94.6965 85.6174 93.3749 86.1736L56.4971 101.692C55.7582 102.003 55.2764 102.725 55.2729 103.527L55.0861 146.694C55.0798 148.146 56.5735 149.121 57.8996 148.53L94.7812 132.108C95.4999 131.788 95.9643 131.076 95.9677 130.289L96.1506 88.0257Z" fill="#673AB7"/>
<path d="M18.2228 89.218C16.6151 88.5359 16.5926 86.2653 18.1865 85.5515L55.6089 68.7925C56.129 68.5596 56.7238 68.5596 57.2438 68.7925L94.6663 85.5515C96.2602 86.2653 96.2377 88.5359 94.63 89.218L57.2075 105.095C56.7083 105.307 56.1445 105.307 55.6453 105.095L18.2228 89.218Z" fill="#673AB7"/>
<path d="M96.8077 88.0382C96.7958 86.6011 98.2584 85.6208 99.5832 86.1781L136.917 101.883C137.653 102.193 138.135 102.911 138.141 103.71L138.5 146.948C138.512 148.402 137.016 149.383 135.687 148.792L98.3457 132.181C97.6293 131.862 97.1652 131.154 97.1587 130.37L96.8077 88.0382Z" fill="#FF9800"/>
<path d="M176.151 88.0257C176.157 86.5918 174.697 85.6174 173.375 86.1736L136.497 101.692C135.758 102.003 135.276 102.725 135.273 103.527L135.086 146.694C135.08 148.146 136.573 149.121 137.9 148.53L174.781 132.108C175.5 131.788 175.964 131.076 175.968 130.289L176.151 88.0257Z" fill="#FF9800"/>
<path d="M98.2228 89.218C96.6151 88.5359 96.5926 86.2653 98.1865 85.5515L135.609 68.7925C136.129 68.5596 136.724 68.5596 137.244 68.7925L174.666 85.5515C176.26 86.2653 176.238 88.5359 174.63 89.218L137.208 105.095C136.708 105.307 136.144 105.307 135.645 105.095L98.2228 89.218Z" fill="#FF9800"/>
<path d="M56.8077 43.0382C56.7958 41.6011 58.2584 40.6208 59.5832 41.1781L96.9169 56.883C97.6533 57.1927 98.1347 57.911 98.1413 58.7099L98.4997 101.948C98.5118 103.402 97.0161 104.383 95.6869 103.792L58.3457 87.1807C57.6293 86.862 57.1652 86.154 57.1587 85.3699L56.8077 43.0382Z" fill="#E91E63"/>
<path d="M136.151 43.0257C136.157 41.5918 134.697 40.6174 133.375 41.1736L96.4971 56.6923C95.7582 57.0033 95.2764 57.7254 95.2729 58.5271L95.0861 101.694C95.0798 103.146 96.5735 104.121 97.8996 103.53L134.781 87.1079C135.5 86.7878 135.964 86.0762 135.968 85.2895L136.151 43.0257Z" fill="#E91E63"/>
<path d="M58.2228 44.218C56.6151 43.5359 56.5926 41.2653 58.1865 40.5515L95.6089 23.7925C96.129 23.5596 96.7238 23.5596 97.2438 23.7925L134.666 40.5515C136.26 41.2653 136.238 43.5359 134.63 44.218L97.2075 60.095C96.7083 60.3068 96.1445 60.3068 95.6453 60.095L58.2228 44.218Z" fill="#E91E63"/>
</svg>
