<svg width="130" height="144" viewBox="0 0 130 144" fill="none" xmlns="http://www.w3.org/2000/svg">
<ellipse cx="26.8915" cy="72.9406" rx="19" ry="9" transform="rotate(-61.6932 26.8915 72.9406)" fill="#FF5722"/>
<ellipse cx="84.9993" cy="104.237" rx="19" ry="9" transform="rotate(-61.6932 84.9993 104.237)" fill="#FF5722"/>
<path d="M97.8521 85.0359C83.4481 111.779 64.3768 114.143 47.3583 104.977C30.3398 95.8105 21.8187 78.5858 36.2226 51.8424C50.6266 25.099 76.0995 10.8499 93.118 20.016C110.136 29.1822 112.256 58.2926 97.8521 85.0359Z" fill="#EEEEEE"/>
<ellipse cx="68.9517" cy="65.4949" rx="24.5" ry="25.5" transform="rotate(28.3068 68.9517 65.4949)" fill="#607D8B"/>
<circle cx="68.9517" cy="65.4949" r="19.5" transform="rotate(28.3068 68.9517 65.4949)" fill="#00BCD4"/>
<circle cx="79.1113" cy="62.4482" r="6" transform="rotate(28.3068 79.1113 62.4482)" fill="#B2EBF2"/>
<circle cx="74.9131" cy="53.3721" r="2" transform="rotate(28.3068 74.9131 53.3721)" fill="#B2EBF2"/>
<ellipse cx="45.9873" cy="107.078" rx="19" ry="9" transform="rotate(-61.6932 45.9873 107.078)" fill="#FF5722"/>
</svg>
