<svg width="84" height="85" viewBox="0 0 84 85" fill="none" xmlns="http://www.w3.org/2000/svg">
<path d="M58 0C60.7614 5.15405e-07 63 2.23858 63 5V11H79C81.7614 11 84 13.2386 84 16V24C84 26.7614 81.7614 29 79 29H5C2.23858 29 1.28855e-07 26.7614 0 24V16C1.28855e-07 13.2386 2.23858 11 5 11H21V5C21 2.23858 23.2386 8.0532e-09 26 0H58ZM32 7C30.3431 7 29 8.34315 29 10C29 11.6569 30.3431 13 32 13H51C52.6569 13 54 11.6569 54 10C54 8.34315 52.6569 7 51 7H32Z" fill="#D9D9D9"/>
<path d="M72.332 20C75.405 20 77.7507 22.746 77.2705 25.7812L68.5674 80.7812C68.1829 83.2107 66.0886 84.9999 63.6289 85H20.3418C17.87 85 15.7692 83.1938 15.3984 80.75L7.05762 25.75C6.59881 22.7245 8.94089 20 12.001 20H72.332ZM27 36C25.8954 36 25 36.8954 25 38V72C25 73.1046 25.8954 74 27 74H31C32.1045 74 33 73.1046 33 72V38C33 36.8954 32.1045 36 31 36H27ZM40 36C38.8954 36 38 36.8954 38 38V72C38 73.1046 38.8954 74 40 74H44C45.1045 74 46 73.1046 46 72V38C46 36.8954 45.1045 36 44 36H40ZM52 36C50.8954 36 50 36.8954 50 38V72C50 73.1046 50.8954 74 52 74H56C57.1045 74 58 73.1046 58 72V38C58 36.8954 57.1045 36 56 36H52Z" fill="#D9D9D9"/>
</svg>
