<svg width="344" height="69" viewBox="0 0 344 69" fill="none" xmlns="http://www.w3.org/2000/svg">
<path d="M81 11C86.5228 11 91 15.4772 91 21V59C91 64.5228 86.5228 69 81 69H10C4.47715 69 9.66416e-08 64.5228 0 59V21C0 15.4772 4.47715 11 10 11H81ZM46 15C32.1929 15 21 26.1929 21 40C21 53.8071 32.1929 65 46 65C59.8071 65 71 53.8071 71 40C71 26.1929 59.8071 15 46 15Z" fill="#00BCD4"/>
<circle cx="46" cy="40" r="20" fill="#00BCD4"/>
<rect x="24" width="44" height="13" rx="5" fill="#00BCD4"/>
<path d="M108.989 22.0909H117.256L125.216 37.125H125.557L133.517 22.0909H141.784L129.051 44.6591V57H121.722V44.6591L108.989 22.0909ZM152.024 57.5114C149.376 57.5114 147.087 56.9489 145.155 55.8239C143.234 54.6875 141.751 53.108 140.706 51.0852C139.661 49.0511 139.138 46.6932 139.138 44.0114C139.138 41.3068 139.661 38.9432 140.706 36.9205C141.751 34.8864 143.234 33.3068 145.155 32.1818C147.087 31.0455 149.376 30.4773 152.024 30.4773C154.672 30.4773 156.956 31.0455 158.876 32.1818C160.808 33.3068 162.297 34.8864 163.342 36.9205C164.388 38.9432 164.911 41.3068 164.911 44.0114C164.911 46.6932 164.388 49.0511 163.342 51.0852C162.297 53.108 160.808 54.6875 158.876 55.8239C156.956 56.9489 154.672 57.5114 152.024 57.5114ZM152.058 51.8864C153.263 51.8864 154.268 51.5455 155.075 50.8636C155.882 50.1705 156.49 49.2273 156.899 48.0341C157.32 46.8409 157.53 45.483 157.53 43.9602C157.53 42.4375 157.32 41.0795 156.899 39.8864C156.49 38.6932 155.882 37.75 155.075 37.0568C154.268 36.3636 153.263 36.017 152.058 36.017C150.842 36.017 149.82 36.3636 148.99 37.0568C148.172 37.75 147.553 38.6932 147.132 39.8864C146.723 41.0795 146.518 42.4375 146.518 43.9602C146.518 45.483 146.723 46.8409 147.132 48.0341C147.553 49.2273 148.172 50.1705 148.99 50.8636C149.82 51.5455 150.842 51.8864 152.058 51.8864ZM186.422 45.8523V30.8182H193.683V57H186.712V52.2443H186.439C185.848 53.7784 184.865 55.0114 183.49 55.9432C182.126 56.875 180.462 57.3409 178.496 57.3409C176.746 57.3409 175.206 56.9432 173.876 56.1477C172.547 55.3523 171.507 54.2216 170.757 52.7557C170.018 51.2898 169.643 49.5341 169.632 47.4886V30.8182H176.893V46.1932C176.905 47.7386 177.32 48.9602 178.138 49.858C178.956 50.7557 180.053 51.2045 181.428 51.2045C182.303 51.2045 183.121 51.0057 183.882 50.608C184.643 50.1989 185.257 49.5966 185.723 48.8011C186.2 48.0057 186.433 47.0227 186.422 45.8523ZM199.491 57V30.8182H206.531V35.3864H206.804C207.281 33.7614 208.082 32.5341 209.207 31.7045C210.332 30.8636 211.628 30.4432 213.094 30.4432C213.457 30.4432 213.849 30.4659 214.27 30.5114C214.69 30.5568 215.06 30.6193 215.378 30.6989V37.142C215.037 37.0398 214.565 36.9489 213.963 36.8693C213.361 36.7898 212.81 36.75 212.31 36.75C211.241 36.75 210.287 36.983 209.446 37.4489C208.616 37.9034 207.957 38.5398 207.469 39.358C206.991 40.1761 206.753 41.1193 206.753 42.1875V57H199.491ZM230.378 57V22.0909H237.759V50.9148H252.724V57H230.378ZM269.305 57.5114C266.658 57.5114 264.368 56.9489 262.436 55.8239C260.516 54.6875 259.033 53.108 257.987 51.0852C256.942 49.0511 256.419 46.6932 256.419 44.0114C256.419 41.3068 256.942 38.9432 257.987 36.9205C259.033 34.8864 260.516 33.3068 262.436 32.1818C264.368 31.0455 266.658 30.4773 269.305 30.4773C271.953 30.4773 274.237 31.0455 276.158 32.1818C278.089 33.3068 279.578 34.8864 280.624 36.9205C281.669 38.9432 282.192 41.3068 282.192 44.0114C282.192 46.6932 281.669 49.0511 280.624 51.0852C279.578 53.108 278.089 54.6875 276.158 55.8239C274.237 56.9489 271.953 57.5114 269.305 57.5114ZM269.339 51.8864C270.544 51.8864 271.55 51.5455 272.357 50.8636C273.163 50.1705 273.771 49.2273 274.18 48.0341C274.601 46.8409 274.811 45.483 274.811 43.9602C274.811 42.4375 274.601 41.0795 274.18 39.8864C273.771 38.6932 273.163 37.75 272.357 37.0568C271.55 36.3636 270.544 36.017 269.339 36.017C268.124 36.017 267.101 36.3636 266.271 37.0568C265.453 37.75 264.834 38.6932 264.413 39.8864C264.004 41.0795 263.8 42.4375 263.8 43.9602C263.8 45.483 264.004 46.8409 264.413 48.0341C264.834 49.2273 265.453 50.1705 266.271 50.8636C267.101 51.5455 268.124 51.8864 269.339 51.8864ZM298.709 67.3636C296.357 67.3636 294.339 67.0398 292.658 66.392C290.987 65.7557 289.658 64.8864 288.669 63.7841C287.68 62.6818 287.038 61.4432 286.743 60.0682L293.459 59.1648C293.663 59.6875 293.987 60.1761 294.43 60.6307C294.874 61.0852 295.459 61.4489 296.186 61.7216C296.925 62.0057 297.822 62.1477 298.879 62.1477C300.459 62.1477 301.76 61.7614 302.783 60.9886C303.817 60.2273 304.334 58.9489 304.334 57.1534V52.3636H304.027C303.709 53.0909 303.232 53.7784 302.595 54.4261C301.959 55.0739 301.141 55.6023 300.141 56.0114C299.141 56.4205 297.947 56.625 296.561 56.625C294.595 56.625 292.805 56.1705 291.192 55.2614C289.589 54.3409 288.311 52.9375 287.357 51.0511C286.413 49.1534 285.942 46.7557 285.942 43.858C285.942 40.892 286.425 38.4148 287.391 36.4261C288.357 34.4375 289.641 32.9489 291.243 31.9602C292.857 30.9716 294.624 30.4773 296.544 30.4773C298.01 30.4773 299.237 30.7273 300.226 31.2273C301.214 31.7159 302.01 32.3295 302.612 33.0682C303.226 33.7955 303.697 34.5114 304.027 35.2159H304.3V30.8182H311.51V57.2557C311.51 59.483 310.964 61.3466 309.874 62.8466C308.783 64.3466 307.271 65.4716 305.339 66.2216C303.419 66.983 301.209 67.3636 298.709 67.3636ZM298.862 51.1705C300.033 51.1705 301.021 50.8807 301.828 50.3011C302.646 49.7102 303.271 48.8693 303.703 47.7784C304.146 46.6761 304.368 45.358 304.368 43.8239C304.368 42.2898 304.152 40.9602 303.72 39.8352C303.288 38.6989 302.663 37.8182 301.845 37.1932C301.027 36.5682 300.033 36.2557 298.862 36.2557C297.669 36.2557 296.663 36.5795 295.845 37.2273C295.027 37.8636 294.408 38.75 293.987 39.8864C293.567 41.0227 293.357 42.3352 293.357 43.8239C293.357 45.3352 293.567 46.642 293.987 47.7443C294.419 48.8352 295.038 49.6818 295.845 50.2841C296.663 50.875 297.669 51.1705 298.862 51.1705ZM329.118 57.5114C326.47 57.5114 324.18 56.9489 322.249 55.8239C320.328 54.6875 318.845 53.108 317.8 51.0852C316.754 49.0511 316.232 46.6932 316.232 44.0114C316.232 41.3068 316.754 38.9432 317.8 36.9205C318.845 34.8864 320.328 33.3068 322.249 32.1818C324.18 31.0455 326.47 30.4773 329.118 30.4773C331.766 30.4773 334.05 31.0455 335.97 32.1818C337.902 33.3068 339.391 34.8864 340.436 36.9205C341.482 38.9432 342.004 41.3068 342.004 44.0114C342.004 46.6932 341.482 49.0511 340.436 51.0852C339.391 53.108 337.902 54.6875 335.97 55.8239C334.05 56.9489 331.766 57.5114 329.118 57.5114ZM329.152 51.8864C330.357 51.8864 331.362 51.5455 332.169 50.8636C332.976 50.1705 333.584 49.2273 333.993 48.0341C334.413 46.8409 334.624 45.483 334.624 43.9602C334.624 42.4375 334.413 41.0795 333.993 39.8864C333.584 38.6932 332.976 37.75 332.169 37.0568C331.362 36.3636 330.357 36.017 329.152 36.017C327.936 36.017 326.913 36.3636 326.084 37.0568C325.266 37.75 324.646 38.6932 324.226 39.8864C323.817 41.0795 323.612 42.4375 323.612 43.9602C323.612 45.483 323.817 46.8409 324.226 48.0341C324.646 49.2273 325.266 50.1705 326.084 50.8636C326.913 51.5455 327.936 51.8864 329.152 51.8864Z" fill="#00BCD4"/>
</svg>
